<?xml version="1.0" encoding="iso-8859-1"?>
<!-- Generator: Adobe Illustrator 16.0.0, SVG Export Plug-In . SVG Version: 6.00 Build 0)  -->
<!DOCTYPE svg PUBLIC "-//W3C//DTD SVG 1.1//EN" "http://www.w3.org/Graphics/SVG/1.1/DTD/svg11.dtd">
<svg version="1.1" id="Capa_1" xmlns="http://www.w3.org/2000/svg" xmlns:xlink="http://www.w3.org/1999/xlink" x="0px" y="0px"
	 width="584.676px" height="584.677px" viewBox="0 0 584.676 584.677" style="enable-background:new 0 0 584.676 584.677;"
	 xml:space="preserve">
<g>
	<g>
		<path d="M179.312,468.832c-29.116-64.591-67.326-139.992-79.866-164.519H27.961c-15.217,0-27.552,11.233-27.552,25.089v193.778
			c0,13.855,12.335,25.089,27.552,25.089h183.367c-5.404-17.711-16.046-43.648-28.782-72.229L179.312,468.832z M60.697,446.77
			H32.138c-4.226,0-7.65-3.425-7.65-7.65s3.424-7.65,7.65-7.65h28.559c4.226,0,7.65,3.425,7.65,7.65S64.919,446.77,60.697,446.77z
			 M60.697,416.169H32.138c-4.226,0-7.65-3.424-7.65-7.649c0-4.227,3.424-7.65,7.65-7.65h28.559c4.226,0,7.65,3.424,7.65,7.65
			C68.347,412.745,64.919,416.169,60.697,416.169z M115.777,446.77H87.218c-4.226,0-7.65-3.425-7.65-7.65s3.424-7.65,7.65-7.65
			h28.559c4.226,0,7.65,3.425,7.65,7.65S120,446.77,115.777,446.77z M115.777,416.169H87.218c-4.226,0-7.65-3.424-7.65-7.649
			c0-4.227,3.424-7.65,7.65-7.65h28.559c4.226,0,7.65,3.424,7.65,7.65C123.427,412.745,120,416.169,115.777,416.169z"/>
		<path d="M168.042,353.831c-2.326,2.576-5.627,4.036-9.082,4.036c-0.178,0-0.355-0.003-0.532-0.013
			c-3.645-0.159-7.029-1.934-9.229-4.841l-34.229-45.232c15.998,31.417,50.236,99.581,76.736,158.759l9.278-87.379
			c-11.656-7.797-19.202-22.169-19.202-38.023c0-0.894,0.074-1.766,0.12-2.646L168.042,353.831z"/>
		<path d="M240.692,379.161l9.547,89.931c27.668-62.038,64.322-134.756,79.64-164.774h-0.551l-36.855,48.699
			c-2.2,2.91-5.585,4.686-9.229,4.841c-0.178,0.01-0.355,0.013-0.533,0.013c-3.455,0-6.756-1.46-9.082-4.036l-13.859-15.343
			c0.046,0.881,0.12,1.753,0.12,2.646C259.891,356.992,252.348,371.364,240.692,379.161z"/>
		<path d="M453.502,323.139c-4.373,0-8.693,0.224-12.959,0.646c-2.807-11.148-13.742-19.472-26.832-19.472h-70.078
			c-12.574,24.591-50.955,100.332-80.102,165.035l-2.892,6.454c-12.785,28.672-23.473,54.703-28.89,72.467h131.357
			c23.504,22.524,55.346,36.407,90.393,36.407c72.105,0,130.768-58.663,130.768-130.769
			C584.268,381.802,525.612,323.139,453.502,323.139z M398.35,548.27c-32.389-19.006-54.193-54.175-54.193-94.361
			c0-56.157,42.555-102.541,97.109-108.648c4.021-0.45,8.1-0.704,12.24-0.704c60.297,0,109.35,49.055,109.35,109.35
			c0,60.294-49.057,109.349-109.35,109.349C433.395,563.257,414.551,557.78,398.35,548.27z"/>
		<path d="M345.565,144.863c-8.58-2.986-26.439-13.403-39.26-49.514c-7.904-4.486-17.495-6.885-29.964-7.494
			c-15.061,5.973-28.341,8.039-40.542,6.325c-5.184-0.722-10.153-1.411-14.967-2.056c-4.813,0.646-9.783,1.334-14.969,2.056
			c-12.188,1.72-25.478-0.352-40.539-6.325c-12.466,0.609-22.057,3.008-29.963,7.494c-12.821,36.114-30.68,46.53-39.26,49.514
			c-0.156,2.552-0.26,5.116-0.26,7.705c0,38.538,17.451,72.99,44.872,95.919c16.677,10.774,32.335,18.574,44.489,23.889
			c11.294,3.354,23.244,5.181,35.627,5.181c12.433,0,24.431-1.842,35.769-5.22c12.105-5.3,27.684-13.079,44.346-23.847
			c27.42-22.929,44.875-57.381,44.875-95.919C345.825,149.979,345.721,147.416,345.565,144.863z"/>
		<path d="M349.249,67.256c-0.447-4.942-3.908-13.271-17.814-24.174c-11.73-9.198-24.252-17.172-37.227-23.712
			c-0.105-0.055-0.213-0.11-0.316-0.171C271.316,6.459,247.357,0,222.684,0l-1.76,0.012L218.979,0
			c-24.673,0-48.63,6.459-71.207,19.198c-0.104,0.062-0.208,0.116-0.318,0.171c-12.969,6.536-25.493,14.514-37.222,23.712
			c-13.908,10.9-17.372,19.232-17.828,24.303c-1.866,25.56-1.037,51.487,1.677,61.613c1.328-0.737,2.913-1.777,4.657-3.179
			c6.631-5.328,15.71-16.172,23.075-38.122c0.627-1.87,1.956-3.424,3.703-4.342c0.303-0.159,0.603-0.318,0.894-0.493
			c10.747-6.475,23.443-9.765,39.96-10.361c1.083-0.034,2.176,0.153,3.186,0.569c13.143,5.404,24.296,7.332,34.183,5.964
			c5.585-0.78,10.915-1.518,16.071-2.207c0.673-0.088,1.353-0.088,2.026,0c5.159,0.688,10.486,1.426,16.071,2.207
			c9.896,1.368,21.041-0.563,34.184-5.964c1.01-0.417,2.108-0.597,3.186-0.569c16.518,0.594,29.214,3.886,39.96,10.358
			c0.293,0.178,0.594,0.337,0.896,0.496c1.75,0.918,3.076,2.472,3.703,4.342c7.35,21.904,16.41,32.751,23.068,38.094
			c1.744,1.398,3.332,2.442,4.67,3.182C350.301,118.826,351.124,92.898,349.249,67.256z"/>
		<path d="M206.154,293.374c0,0-35.398-10.113-75.851-37.084l-18.541,26.968l15.933,21.053l31.264,41.313l37.317-41.313
			L206.154,293.374z"/>
		<path d="M311.37,256.293c-40.454,26.968-75.852,37.084-75.852,37.084l9.881,10.939l37.316,41.312l31.264-41.312l15.934-21.053
			L311.37,256.293z"/>
		<path d="M227.623,371.998c11.518-3.583,20.031-16.022,20.031-30.863c0-17.638-12.004-31.934-26.814-31.934
			s-26.815,14.296-26.815,31.934c0,14.838,8.513,27.28,20.031,30.863l-12.286,115.698l19.067,44.86l19.07-44.86L227.623,371.998z"/>
		<polygon points="533.305,430.312 481.926,419.36 453.502,372.335 441.262,392.586 425.081,419.36 373.704,430.312 
			412.071,467.513 404.184,524.123 441.262,505.968 453.502,499.974 502.825,524.123 494.938,467.513 		"/>
	</g>
</g>
<g>
</g>
<g>
</g>
<g>
</g>
<g>
</g>
<g>
</g>
<g>
</g>
<g>
</g>
<g>
</g>
<g>
</g>
<g>
</g>
<g>
</g>
<g>
</g>
<g>
</g>
<g>
</g>
<g>
</g>
</svg>
